<?xml version="1.0" standalone="no"?>
<!DOCTYPE svg PUBLIC "-//W3C//DTD SVG 20010904//EN"
 "http://www.w3.org/TR/2001/REC-SVG-20010904/DTD/svg10.dtd">
<svg version="1.0" xmlns="http://www.w3.org/2000/svg"
 width="527.000000pt" height="474.000000pt" viewBox="0 0 527.000000 474.000000"
 preserveAspectRatio="xMidYMid meet">

<g transform="translate(0.000000,474.000000) scale(0.100000,-0.100000)"
fill="#000000" stroke="none">
<path d="M109 4675 c-19 -9 -43 -28 -52 -44 -16 -27 -17 -179 -17 -2273 0
-2200 0 -2244 19 -2272 11 -16 30 -35 43 -42 19 -11 510 -13 2531 -14 2223 0
2511 2 2537 15 65 33 60 -149 60 2315 0 2064 -1 2244 -16 2270 -37 62 -5 60
-887 60 -841 0 -901 -3 -946 -44 -17 -15 -125 -165 -276 -381 -16 -23 -39 -56
-50 -71 -11 -16 -58 -83 -106 -149 -132 -186 -186 -263 -382 -551 -276 -403
-268 -385 -207 -471 26 -37 147 -180 180 -213 3 -3 34 -39 70 -80 35 -41 67
-77 70 -80 9 -7 172 -190 201 -224 13 -16 33 -39 44 -51 127 -142 145 -170
145 -219 0 -23 -8 -57 -18 -76 -9 -19 -112 -177 -228 -350 -252 -379 -278
-421 -300 -485 -28 -87 -47 -94 -100 -41 -57 57 -46 112 81 396 24 52 55 122
70 155 15 33 39 87 55 120 64 136 104 249 104 298 1 43 -3 52 -29 74 -71 58
-290 220 -520 383 -181 129 -355 262 -384 295 -17 20 -31 46 -31 59 0 27 36
146 83 276 53 144 165 446 197 530 16 41 38 100 49 130 11 30 35 98 54 150
128 345 174 480 183 537 6 37 4 43 -22 60 -27 17 -77 18 -1099 20 -939 3
-1074 1 -1106 -12z m1682 -202 c174 -6 184 -8 206 -29 18 -18 22 -30 17 -51
-14 -61 -98 -303 -194 -563 -56 -151 -134 -360 -172 -465 -39 -104 -83 -224
-98 -265 -44 -116 -56 -189 -39 -225 15 -32 131 -122 471 -365 111 -80 223
-161 250 -180 26 -19 74 -55 108 -79 84 -61 120 -104 120 -145 0 -19 -18 -78
-41 -132 -42 -101 -53 -127 -109 -249 -134 -294 -190 -434 -190 -476 0 -31 75
-148 146 -230 27 -31 65 -76 84 -100 19 -24 96 -116 170 -205 256 -306 320
-390 320 -418 0 -7 -9 -21 -21 -32 -20 -18 -57 -19 -1238 -22 l-1217 -3 -34
24 c-19 12 -40 34 -47 47 -15 29 -17 1339 -6 3065 l6 1038 23 26 22 26 289 5
c478 9 979 10 1174 3z m3171 -32 l33 -29 0 -2051 0 -2051 -32 -32 -33 -33
-142 -7 c-213 -10 -1414 -9 -1560 2 -130 9 -179 24 -196 58 -39 74 -198 644
-235 842 -12 61 -12 83 -2 116 7 23 111 190 231 370 120 181 225 340 232 354
7 14 19 32 26 40 28 33 76 129 76 152 0 21 -50 114 -69 128 -7 5 -125 139
-190 215 -19 22 -73 83 -121 135 -48 52 -102 113 -121 135 -19 22 -75 86 -126
143 -91 103 -123 152 -123 190 0 42 53 126 311 492 21 30 63 91 93 135 30 44
113 163 185 265 268 383 308 435 346 450 11 5 327 9 702 9 l683 1 32 -29z"/>
</g>
</svg>
